<?xml version="1.0" encoding="UTF-8"?>
<!DOCTYPE svg PUBLIC "-//W3C//DTD SVG 1.1//EN" "http://www.w3.org/Graphics/SVG/1.1/DTD/svg11.dtd">
<svg xmlns="http://www.w3.org/2000/svg" version="1.1" width="512px" height="512px" style="shape-rendering:geometricPrecision; text-rendering:geometricPrecision; image-rendering:optimizeQuality; fill-rule:evenodd; clip-rule:evenodd" xmlns:xlink="http://www.w3.org/1999/xlink">
<g><path style="opacity:0.999" fill="#8b8b8b" d="M 63.5,-0.5 C 191.5,-0.5 319.5,-0.5 447.5,-0.5C 481.833,7.83333 503.167,29.1667 511.5,63.5C 511.5,191.5 511.5,319.5 511.5,447.5C 503.167,481.833 481.833,503.167 447.5,511.5C 319.5,511.5 191.5,511.5 63.5,511.5C 29.1667,503.167 7.83333,481.833 -0.5,447.5C -0.5,319.5 -0.5,191.5 -0.5,63.5C 7.83333,29.1667 29.1667,7.83333 63.5,-0.5 Z"/></g>
<g><path style="opacity:1" fill="#fefefe" d="M 379.5,163.5 C 368.213,154.846 355.88,147.679 342.5,142C 329.336,136.413 316.003,131.413 302.5,127C 303.5,126 304.5,125 305.5,124C 338.045,126.108 367.712,136.441 394.5,155C 398.633,160.761 402.133,166.927 405,173.5C 429.198,227.955 441.531,284.955 442,344.5C 425.293,367.119 403.126,381.619 375.5,388C 365.587,390.103 355.587,391.103 345.5,391C 338.264,383.187 331.264,375.187 324.5,367C 346.92,360.712 365.42,348.546 380,330.5C 380.667,329.833 380.667,329.167 380,328.5C 364.141,342.013 345.974,351.18 325.5,356C 279.144,367.237 232.811,367.237 186.5,356C 166.901,350.619 149.401,341.453 134,328.5C 139.309,337.483 146.476,344.983 155.5,351C 165.825,357.328 176.492,362.828 187.5,367.5C 180.717,375.786 173.383,383.619 165.5,391C 125.423,391.518 93.2565,376.018 69,344.5C 69.692,278.732 84.692,216.399 114,157.5C 140.769,137.243 170.935,126.076 204.5,124C 205.5,125 206.5,126 207.5,127C 178.556,134.973 152.223,147.973 128.5,166C 157.43,150.474 188.43,141.14 221.5,138C 265.73,133.735 309.063,138.068 351.5,151C 361.24,154.372 370.573,158.539 379.5,163.5 Z"/></g>
<g><path style="opacity:1" fill="#adadad" d="M 379.5,163.5 C 381.027,163.427 382.027,164.094 382.5,165.5C 380.973,165.573 379.973,164.906 379.5,163.5 Z"/></g>
<g><path style="opacity:1" fill="#c3c3c3" d="M 382.5,165.5 C 383.756,165.461 384.756,165.961 385.5,167C 384.002,167.585 383.002,167.085 382.5,165.5 Z"/></g>
<g><path style="opacity:1" fill="#8b8b8b" d="M 188.5,243.5 C 208.92,242.112 222.087,251.112 228,270.5C 230.241,285.834 225.408,298.334 213.5,308C 190.721,318.524 174.221,312.358 164,289.5C 159.349,267.126 167.516,251.793 188.5,243.5 Z"/></g>
<g><path style="opacity:1" fill="#8b8b8b" d="M 304.5,243.5 C 324.92,242.112 338.087,251.112 344,270.5C 346.241,285.834 341.408,298.334 329.5,308C 306.721,318.524 290.221,312.358 280,289.5C 275.349,267.126 283.516,251.793 304.5,243.5 Z"/></g>
</svg>
