<?xml version="1.0" encoding="UTF-8"?>
<!DOCTYPE svg PUBLIC "-//W3C//DTD SVG 1.1//EN" "http://www.w3.org/Graphics/SVG/1.1/DTD/svg11.dtd">
<svg xmlns="http://www.w3.org/2000/svg" version="1.1" width="16px" height="16px" style="shape-rendering:geometricPrecision; text-rendering:geometricPrecision; image-rendering:optimizeQuality; fill-rule:evenodd; clip-rule:evenodd" xmlns:xlink="http://www.w3.org/1999/xlink">
<g><path style="opacity:0.813" fill="#737373" d="M 15.5,2.5 C 15.5,3.5 15.5,4.5 15.5,5.5C 12.8333,6.83333 12.8333,8.16667 15.5,9.5C 15.5,10.1667 15.5,10.8333 15.5,11.5C 13.3891,12.9681 11.5557,12.6348 10,10.5C 7.93615,11.5914 5.76948,11.7581 3.5,11C 2.02294,9.18787 0.689603,7.35453 -0.5,5.5C -0.5,4.5 -0.5,3.5 -0.5,2.5C 1.98055,2.32345 3.81388,3.32345 5,5.5C 5.61723,4.55085 5.45057,3.71752 4.5,3C 7.28774,1.13578 9.12107,1.96912 10,5.5C 10.9282,2.96478 12.7615,1.96478 15.5,2.5 Z"/></g>
</svg>
